<?xml version="1.0" encoding="UTF-8" standalone="no"?>
<svg
   xmlns:dc="http://purl.org/dc/elements/1.1/"
   xmlns:cc="http://creativecommons.org/ns#"
   xmlns:rdf="http://www.w3.org/1999/02/22-rdf-syntax-ns#"
   xmlns:svg="http://www.w3.org/2000/svg"
   xmlns="http://www.w3.org/2000/svg"
   xmlns:xlink="http://www.w3.org/1999/xlink"
   xmlns:sodipodi="http://sodipodi.sourceforge.net/DTD/sodipodi-0.dtd"
   xmlns:inkscape="http://www.inkscape.org/namespaces/inkscape"
   version="1.1"
   width="630"
   height="630"
   id="svg5565"
   inkscape:version="0.48.1 "
   sodipodi:docname="fox_transparent_art_coloring_book_colouring_sheet_page_black_white_line_art.svg">
  <sodipodi:namedview
     pagecolor="#ffffff"
     bordercolor="#666666"
     borderopacity="1"
     objecttolerance="10"
     gridtolerance="10"
     guidetolerance="10"
     inkscape:pageopacity="0"
     inkscape:pageshadow="2"
     inkscape:window-width="640"
     inkscape:window-height="480"
     id="namedview69"
     showgrid="false"
     inkscape:zoom="0.38412698"
     inkscape:cx="315"
     inkscape:cy="315"
     inkscape:window-x="873"
     inkscape:window-y="292"
     inkscape:window-maximized="0"
     inkscape:current-layer="svg5565" />
  <metadata
     id="metadata3">
    <rdf:RDF>
      <cc:Work
         rdf:about="">
        <dc:title>Fox</dc:title>
        <dc:description>Head of the fox</dc:description>
        <dc:subject>
          <rdf:Bag>
            <rdf:li>fox</rdf:li>
            <rdf:li>orange</rdf:li>
            <rdf:li>yellow</rdf:li>
            <rdf:li>cartoon</rdf:li>
            <rdf:li>head</rdf:li>
            <rdf:li>color</rdf:li>
          </rdf:Bag>
        </dc:subject>
        <dc:publisher>
          <cc:Agent
             rdf:about="http://www.openclipart.org">
            <dc:title>Open Clip Art Library</dc:title>
          </cc:Agent>
        </dc:publisher>
        <dc:creator>
          <cc:Agent>
            <dc:title>Jakub Jankiewicz</dc:title>
          </cc:Agent>
        </dc:creator>
        <dc:rights>
          <cc:Agent>
            <dc:title>Jakub Jankiewicz</dc:title>
          </cc:Agent>
        </dc:rights>
        <dc:date />
        <dc:format>image/svg+xml</dc:format>
        <dc:type
           rdf:resource="http://purl.org/dc/dcmitype/StillImage" />
        <cc:license
           rdf:resource="http://web.resource.org/cc/PublicDomain" />
        <dc:language>pl</dc:language>
      </cc:Work>
      <cc:License
         rdf:about="http://web.resource.org/cc/PublicDomain">
        <cc:permits
           rdf:resource="http://web.resource.org/cc/Reproduction" />
        <cc:permits
           rdf:resource="http://web.resource.org/cc/Distribution" />
        <cc:permits
           rdf:resource="http://web.resource.org/cc/DerivativeWorks" />
      </cc:License>
    </rdf:RDF>
  </metadata>
  <defs
     id="defs5567">
    <linearGradient
       id="linearGradient4118">
      <stop
         id="stop4120"
         style="stop-color:#1274f4;stop-opacity:1"
         offset="0" />
      <stop
         id="stop4122"
         style="stop-color:#00132c;stop-opacity:1"
         offset="1" />
    </linearGradient>
    <inkscape:path-effect
       effect="skeletal"
       id="path-effect3997" />
    <linearGradient
       id="linearGradient3145">
      <stop
         id="stop3147"
         style="stop-color:#ab2302;stop-opacity:1"
         offset="0" />
      <stop
         id="stop3149"
         style="stop-color:#ab2302;stop-opacity:0"
         offset="1" />
    </linearGradient>
    <inkscape:path-effect
       effect="skeletal"
       id="path-effect4188" />
    <inkscape:path-effect
       effect="skeletal"
       id="path-effect4208" />
    <linearGradient
       x1="269.20566"
       y1="124.53707"
       x2="297.995"
       y2="201.81374"
       id="linearGradient3933-2"
       xlink:href="#linearGradient3935-9"
       gradientUnits="userSpaceOnUse"
       gradientTransform="matrix(2.3293413,0,0,2.3293413,-962.48526,215.67046)" />
    <linearGradient
       id="linearGradient3935-9">
      <stop
         id="stop3937-2"
         style="stop-color:#ff8700;stop-opacity:1"
         offset="0" />
      <stop
         id="stop3939-8"
         style="stop-color:#d33b00;stop-opacity:1"
         offset="1" />
    </linearGradient>
    <linearGradient
       x1="288.90363"
       y1="104.8391"
       x2="288.90363"
       y2="171.04311"
       id="linearGradient3056"
       xlink:href="#linearGradient3050"
       gradientUnits="userSpaceOnUse"
       gradientTransform="matrix(2.3293413,0,0,2.3293413,-888.36609,215.67046)" />
    <linearGradient
       id="linearGradient3050">
      <stop
         id="stop3052"
         style="stop-color:#eb6a0f;stop-opacity:1"
         offset="0" />
      <stop
         id="stop3054"
         style="stop-color:#a11700;stop-opacity:1"
         offset="1" />
    </linearGradient>
    <inkscape:path-effect
       effect="skeletal"
       id="path-effect3960" />
    <inkscape:path-effect
       effect="skeletal"
       id="path-effect4084" />
    <inkscape:path-effect
       effect="skeletal"
       id="path-effect4161" />
    <linearGradient
       x1="269.20566"
       y1="124.53707"
       x2="297.995"
       y2="201.81374"
       id="linearGradient3110"
       xlink:href="#linearGradient3935-9"
       gradientUnits="userSpaceOnUse"
       gradientTransform="matrix(2.3293413,0,0,2.3293413,-962.48526,215.67046)" />
    <linearGradient
       x1="288.90363"
       y1="104.8391"
       x2="288.90363"
       y2="171.04311"
       id="linearGradient3112"
       xlink:href="#linearGradient3050"
       gradientUnits="userSpaceOnUse"
       gradientTransform="matrix(2.3293413,0,0,2.3293413,-888.36609,215.67046)" />
    <linearGradient
       x1="288.90363"
       y1="104.8391"
       x2="288.90363"
       y2="171.04311"
       id="linearGradient3130"
       xlink:href="#linearGradient3050"
       gradientUnits="userSpaceOnUse"
       gradientTransform="matrix(2.3293413,0,0,2.3293413,-222.25138,326.95795)" />
    <linearGradient
       x1="269.20566"
       y1="124.53707"
       x2="297.995"
       y2="201.81374"
       id="linearGradient3136"
       xlink:href="#linearGradient3935-9"
       gradientUnits="userSpaceOnUse"
       gradientTransform="matrix(2.3293413,0,0,2.3293413,-296.37055,326.95795)" />
    <linearGradient
       x1="333.35034"
       y1="268.36539"
       x2="348.50262"
       y2="267.86029"
       id="linearGradient3151"
       xlink:href="#linearGradient3145"
       gradientUnits="userSpaceOnUse" />
    <radialGradient
       cx="557.82336"
       cy="557.85718"
       r="197.82341"
       fx="557.82336"
       fy="557.85718"
       id="radialGradient4124"
       xlink:href="#linearGradient4118"
       gradientUnits="userSpaceOnUse"
       gradientTransform="matrix(0.91644797,-0.85781138,1.2126087,1.2954976,-629.85512,313.66175)" />
    <linearGradient
       id="linearGradient4118-0">
      <stop
         id="stop4120-6"
         style="stop-color:#2994d1;stop-opacity:1"
         offset="0" />
      <stop
         id="stop4122-1"
         style="stop-color:#0d426c;stop-opacity:1"
         offset="1" />
    </linearGradient>
    <radialGradient
       cx="557.82336"
       cy="557.85718"
       r="197.82341"
       fx="557.82336"
       fy="557.85718"
       id="radialGradient4141"
       xlink:href="#linearGradient4118-0"
       gradientUnits="userSpaceOnUse"
       gradientTransform="matrix(0.91644797,-0.85781138,1.2126087,1.2954976,-629.85512,313.66175)" />
    <linearGradient
       x1="324.28574"
       y1="755.21692"
       x2="577.2334"
       y2="971.13751"
       id="linearGradient4159"
       xlink:href="#linearGradient4118-0"
       gradientUnits="userSpaceOnUse" />
    <linearGradient
       x1="324.28574"
       y1="755.21692"
       x2="577.2334"
       y2="971.13751"
       id="linearGradient4167"
       xlink:href="#linearGradient4118-0"
       gradientUnits="userSpaceOnUse" />
    <clipPath
       id="clipPath4181">
      <path
         d="m 230,895.29725 0,211.34375 444.28125,0 0,-199.09375 c -0.65963,0.89686 -1.35967,1.78441 -2.1875,2.6875 a 12.858428,12.858428 0 0 1 -9.375,4.15625 c -0.0936,0.65982 -0.65625,3.41957 -0.65625,3.59375 -0.0112,-0.01 6.7e-4,0.019 0,0.0312 0.0112,0.0147 0.0405,0.0149 0.0625,0.0625 a 12.858428,12.858428 0 0 1 -6.28125,17.03125 c -4.21056,1.95491 -9.17992,3.875 -15.6875,3.875 -3.86313,0 -8.84955,-0.52595 -13.375,-4.4375 -4.52545,-3.91155 -5.96875,-9.94516 -5.96875,-14 0,-2.64896 0.29496,-4.95526 0.6875,-7.21875 -0.28342,0.0203 -0.62769,0.0108 -0.90625,0.0312 -4.34831,0.31982 -7.38584,0.58028 -10.5,0.6875 a 12.858428,12.858428 0 0 1 -2.53125,13.3125 c -5.72825,6.21923 -13.50204,10.71875 -22.46875,10.71875 -6.63275,0 -11.58021,-3.26388 -15.15625,-7.0625 a 12.858428,12.858428 0 0 1 -9.75,7.15625 c -1.82405,0.26058 -3.22914,0.25 -4.15625,0.25 -4.55329,0 -9.04787,-0.7905 -13.46875,-3.46875 -2.01823,-1.22268 -4.02743,-3.20787 -5.65625,-5.5625 -7.33048,5.40247 -16.15166,8.90625 -25.9375,8.90625 -8.87147,0 -17.67947,-3.03324 -23.9375,-9.28125 -3.92277,-3.91649 -6.47124,-8.92031 -7.9375,-14.34375 -0.75886,2.61701 -1.49107,5.23701 -2.4375,7.96875 -5.04262,14.53462 -16.30679,26.24975 -30.875,31.75 a 12.858428,12.858428 0 0 1 -1.40625,0.4375 c -0.0736,0.0184 -1.1818,0.59375 -4.25,0.59375 -2.95391,0 -7.43356,-0.96485 -10.75,-4.34375 -3.31644,-3.3789 -4.09375,-7.65756 -4.09375,-10.1875 a 12.858428,12.858428 0 0 1 0.125,-1.8125 c 0.10402,-0.72815 0.46628,-1.54522 0.75,-2.34375 -4.26786,1.01236 -8.63921,1.5625 -13.03125,1.5625 -8.40901,0 -16.66761,-1.77 -23.3125,-7.09375 -6.64489,-5.32375 -10.24698,-13.91282 -10.65625,-22.34375 -0.0396,-0.81685 0.004,-1.6229 0,-2.4375 -2.27084,4.94382 -4.67102,10.5539 -7.25,17 -0.0168,0.0421 -0.0144,0.0829 -0.0312,0.125 l -0.0312,0 c -1.19264,3.038 -3.20997,7.10273 -7.34375,10.15625 -4.18481,3.09122 -9.32102,4.0625 -13.75,4.0625 -3.61761,0 -7.01546,-0.4886 -11.03125,-1.21875 A 12.858428,12.858428 0 0 1 335.375,934.891 c -3.24736,1.73679 -6.90597,2.96875 -11.65625,2.96875 -5.3851,0 -11.71091,-1.85611 -16.15625,-6.34375 -4.35529,-4.39673 -6.1865,-10.19743 -6.59375,-15.625 -0.002,-0.0302 0.002,-0.0635 0,-0.0937 -0.006,-0.0819 -0.026,-0.16826 -0.0312,-0.25 l 0.0312,0 c -0.33031,-3.94712 -0.17653,-8.7663 0.96875,-14.9375 -1.58249,0.0999 -3.4679,0.12186 -5.25,0.1875 -1.91902,9.0157 -2.94636,15.06933 -3,16.59375 0.19176,0.67141 1.03125,1.51124 1.03125,5.9375 a 12.858428,12.858428 0 0 1 -5.5,10.5625 c -6.7695,4.70921 -12.45371,4.96875 -18.28125,4.96875 -4.22118,0 -9.42103,-0.49357 -14.15625,-4.625 -4.73522,-4.13143 -5.96875,-10.31406 -5.96875,-14.25 0,-4.41734 0.85788,-7.912 1.5625,-10.84375 0.0131,-0.0582 0.0182,-0.12924 0.0312,-0.1875 0.9485,-4.22876 1.83502,-8.65257 3.03125,-13.4375 a 12.858428,12.858428 0 0 1 0.0312,-0.15625 c 0.006,-0.0232 0.0252,-0.0393 0.0312,-0.0625 l -25.5,0 z m 95.75,6.0625 c -0.47609,0.23375 -0.44577,0.36855 -0.28125,0.25 0.0451,-0.0325 0.21535,-0.199 0.28125,-0.25 z"
         id="path4183"
         style="color:#000000;fill:#b3b3b3;fill-opacity:1;fill-rule:nonzero;stroke:none;stroke-width:1;marker:none;visibility:visible;display:inline;overflow:visible;enable-background:accumulate" />
    </clipPath>
    <linearGradient
       x1="269.20566"
       y1="124.53707"
       x2="297.995"
       y2="201.81374"
       id="linearGradient4212"
       xlink:href="#linearGradient3935-9"
       gradientUnits="userSpaceOnUse"
       gradientTransform="matrix(2.3293413,0,0,2.3293413,-296.37055,326.95795)" />
    <linearGradient
       x1="288.90363"
       y1="104.8391"
       x2="288.90363"
       y2="171.04311"
       id="linearGradient4214"
       xlink:href="#linearGradient3050"
       gradientUnits="userSpaceOnUse"
       gradientTransform="matrix(2.3293413,0,0,2.3293413,-222.25138,326.95795)" />
    <linearGradient
       inkscape:collect="always"
       xlink:href="#linearGradient3935-9"
       id="linearGradient3072"
       gradientUnits="userSpaceOnUse"
       gradientTransform="matrix(2.3293413,0,0,2.3293413,-296.37055,326.95795)"
       x1="269.20566"
       y1="124.53707"
       x2="297.995"
       y2="201.81374" />
    <linearGradient
       inkscape:collect="always"
       xlink:href="#linearGradient3050"
       id="linearGradient3074"
       gradientUnits="userSpaceOnUse"
       gradientTransform="matrix(2.3293413,0,0,2.3293413,-222.25138,326.95795)"
       x1="288.90363"
       y1="104.8391"
       x2="288.90363"
       y2="171.04311" />
  </defs>
  <path
     d="m 470.8754,212.95766 c 0.0256,-0.0281 0.0512,-0.0533 0.0764,-0.0797 0.0691,-0.0725 0.13746,-0.14543 0.20581,-0.21918 0.25928,-0.27897 0.51387,-0.56246 0.76573,-0.84822 0.93849,-1.06481 1.83879,-2.16293 2.71308,-3.28106 0,0 0,0 0,0 3.07168,-3.92843 5.82016,-8.10661 8.2695,-12.45038 0,0 0,0 0,-4e-5 7.71329,-13.67909 12.3495,-29.15675 12.84617,-44.85283 0,0 0,0 0,0 0.54088,-17.09294 -4.5649,-34.00111 -12.21272,-49.2973 -2.67335,-5.346846 -5.67413,-10.530963 -8.99701,-15.500284 0,0 0,0 0,0 0,-4e-6 0,-8e-6 0,-1.3e-5 -0.97009,-1.450706 -1.96757,-2.883296 -3.00433,-4.287125 -0.28052,-0.379558 -0.56346,-0.757047 -0.85147,-1.130826 0,0 0,0 0,0 0,-4e-6 0,-8e-6 0,-1.3e-5 -0.0757,-0.09828 -0.15182,-0.196292 -0.22836,-0.293819 -0.0278,-0.03513 -0.0559,-0.07092 -0.0837,-0.105799 -13.28429,-0.638706 -26.74139,1.438756 -39.01099,6.570277 -9.37606,3.921357 -17.91058,9.570227 -26.28475,15.328762 -8.85881,6.09178 -15.49237,14.94025 -20.92183,24.21975 l 0,0 -7.41046,14.99943 48.03444,29.65379 c 0,0 0,0 0,0 0,0 0,0 0,0 11.81658,8.89806 23.09148,18.51783 33.71716,28.80865 0,0 0,0 0,0 0,0 0,0 4e-5,0 3.11551,3.01738 6.17568,6.09253 9.15056,9.24867 0,0 0,0 4e-5,0 0.80459,0.85359 1.60293,1.71309 2.39047,2.58249 0.20651,0.2281 0.41238,0.45672 0.61681,0.68665 0.0729,0.0819 0.14703,0.16515 0.21909,0.24789 l 3.6e-4,3.9e-4"
     id="path3107"
     style="color:#000000;fill:#000000;fill-opacity:1;fill-rule:nonzero;stroke:none;stroke-width:1;marker:none;visibility:visible;display:inline;overflow:visible;enable-background:accumulate"
     inkscape:connector-curvature="0" />
  <path
     d="m 465.13378,201.79528 c 0.0214,-0.0241 0.0435,-0.0452 0.0653,-0.0677 0.058,-0.0609 0.11568,-0.12218 0.17292,-0.18391 0.217,-0.23368 0.42989,-0.47067 0.64062,-0.70983 0.78349,-0.88925 1.53514,-1.80628 2.26504,-2.74005 0,0 0,0 0,0 0,0 0,0 0,0 2.56174,-3.27735 4.85395,-6.76289 6.89658,-10.38654 0,0 0,-4e-5 0,-4e-5 0,0 0,0 0,0 6.42965,-11.4065 10.29421,-24.31178 10.70834,-37.39912 0,0 0,0 0,0 0.451,-14.25267 -3.80517,-28.3514 -10.18094,-41.10644 0,0 0,0 0,0 0,-4e-5 0,-4e-5 0,-4e-5 -2.22943,-4.46009 -4.73205,-8.78443 -7.50328,-12.929671 0,0 0,0 0,0 0,-4e-6 0,-8e-6 -5e-5,-1.4e-5 -0.80965,-1.211115 -1.64227,-2.407101 -2.50759,-3.57909 0,-4e-6 -4e-5,-9e-6 -4e-5,-1.7e-5 0,0 0,0 0,0 0,-5e-6 0,-9e-6 0,-1.3e-5 -0.23422,-0.317399 -0.47113,-0.633064 -0.71189,-0.945632 -0.0634,-0.08246 -0.12724,-0.164693 -0.19149,-0.246524 -0.0238,-0.03005 -0.0472,-0.06021 -0.071,-0.08984 -19.54533,-0.939687 -38.3373,7.177688 -54.4607,18.265023 0,0 0,0 0,0 -7.38566,5.07874 -12.91683,12.45499 -17.4443,20.19086 0,0 0,0 0,0 0,0 0,0 0,0 -1.67355,2.85947 -3.20674,5.80121 -4.59125,8.81131 0,0 0,0 0,0 0,0 0,0 0,0 -0.40942,0.89039 -0.80611,1.7868 -1.18346,2.69125 0,0 0,0 0,0 -0.10312,0.24677 -0.20462,0.49442 -0.30367,0.7429 -0.0359,0.09 -0.0735,0.18417 -0.10813,0.27467 l 40.06362,24.73331 c 0,0 0,0 0,0 9.85192,7.41864 19.2524,15.43881 28.11188,24.01819 0,4e-5 0,4e-5 4e-5,4e-5 0,0 0,0 0,0 2.59925,2.51709 5.15229,5.0824 7.63429,7.71524 0,0 0,0 0,0 0.67214,0.71299 1.33912,1.43098 1.99702,2.15714 0,0 0,0 0,0 0,0 0,0 0,0 0.17302,0.19115 0.3452,0.38268 0.51666,0.5751 0,0 0,0 0,0 0.0614,0.0692 0.12431,0.13968 0.18522,0.20968 l 4.4e-4,4.7e-4"
     id="path3109"
     style="color:#000000;fill:#ffffff;fill-opacity:1;fill-rule:nonzero;stroke:none;stroke-width:1;marker:none;visibility:visible;display:inline;overflow:visible;enable-background:accumulate"
     inkscape:connector-curvature="0" />
  <path
     d="m 448.53213,188.08044 c 2.51815,-3.61302 4.95793,-7.3325 6.48753,-11.46231 2.23407,-6.03165 2.84055,-12.54196 3.04398,-18.97088 0.21066,-6.65755 0.40649,-13.49807 -1.74156,-19.80251 -1.79028,-5.25086 -5.67537,-9.53307 -10.0344,-12.96464 0,0 0,0 0,0 -5.66672,-0.27214 -11.45485,0.14578 -16.76056,2.15465 -3.91075,1.48074 -7.40971,3.84926 -10.85536,6.21869 -7.12217,4.89762 -12.44868,12.03221 -15.82957,19.98721 0,0 0,0 0,0 l 22.28918,13.75982 23.40012,21.07929 c 4.4e-4,4.6e-4 6.4e-4,6.8e-4 6.4e-4,6.8e-4 z"
     id="path3111"
     style="color:#000000;fill:#ffffff;fill-opacity:1;fill-rule:nonzero;stroke:#000000;stroke-width:1;marker:none;visibility:visible;display:inline;overflow:visible;enable-background:accumulate"
     inkscape:connector-curvature="0" />
  <path
     inkscape:connector-curvature="0"
     style="color:#000000;fill:#000000;fill-opacity:1;fill-rule:nonzero;stroke:none;stroke-width:1;marker:none;visibility:visible;display:inline;overflow:visible;enable-background:accumulate"
     id="path3007"
     d="m 156.10018,212.95765 c -0.0256,-0.0281 -0.0512,-0.0533 -0.0764,-0.0797 -0.0691,-0.0725 -0.13746,-0.14543 -0.20581,-0.21918 -0.25928,-0.27897 -0.51387,-0.56246 -0.76573,-0.84822 -0.93849,-1.06481 -1.83879,-2.16293 -2.71308,-3.28106 0,0 0,0 0,0 -3.07168,-3.92843 -5.82016,-8.10661 -8.2695,-12.45038 0,0 0,0 0,-4e-5 -7.71329,-13.67909 -12.3495,-29.15675 -12.84617,-44.85283 0,0 0,0 0,0 -0.54088,-17.09294 4.5649,-34.00111 12.21272,-49.2973 2.67335,-5.346846 5.67413,-10.530963 8.99701,-15.500284 0,0 0,0 0,0 0,-4e-6 0,-8e-6 0,-1.3e-5 0.97009,-1.450706 1.96757,-2.883296 3.00433,-4.287125 0.28052,-0.379558 0.56346,-0.757047 0.85147,-1.130826 0,0 0,0 0,0 0,-4e-6 0,-8e-6 0,-1.3e-5 0.0757,-0.09828 0.15182,-0.196292 0.22836,-0.293819 0.0278,-0.03512 0.0559,-0.07092 0.0837,-0.105799 13.28429,-0.638706 26.74139,1.438756 39.01099,6.570277 9.37606,3.921357 17.91058,9.570227 26.28475,15.328762 8.85881,6.09178 15.49237,14.94025 20.92183,24.21975 l 0,0 7.41046,14.99943 -48.03444,29.65379 c 0,0 0,0 0,0 0,0 0,0 0,0 -11.81658,8.89806 -23.09148,18.51783 -33.71716,28.80865 0,0 0,0 0,0 0,0 0,0 -4e-5,0 -3.11551,3.01738 -6.17568,6.09253 -9.15056,9.24867 0,0 0,0 -4e-5,0 -0.80459,0.85359 -1.60293,1.71309 -2.39047,2.58249 -0.20651,0.2281 -0.41238,0.45672 -0.61681,0.68665 -0.0729,0.0819 -0.14703,0.16515 -0.21909,0.24789 l -3.6e-4,3.9e-4" />
  <path
     inkscape:connector-curvature="0"
     style="color:#000000;fill:#ffffff;fill-opacity:1;fill-rule:nonzero;stroke:none;stroke-width:1;marker:none;visibility:visible;display:inline;overflow:visible;enable-background:accumulate"
     id="path3009"
     d="m 161.8418,201.79527 c -0.0214,-0.0241 -0.0435,-0.0452 -0.0653,-0.0677 -0.058,-0.0609 -0.11568,-0.12218 -0.17292,-0.18391 -0.217,-0.23368 -0.42989,-0.47067 -0.64062,-0.70983 -0.78349,-0.88925 -1.53514,-1.80628 -2.26504,-2.74005 0,0 0,0 0,0 0,0 0,0 0,0 -2.56174,-3.27735 -4.85395,-6.76289 -6.89658,-10.38654 0,0 0,-4e-5 0,-4e-5 0,0 0,0 0,0 -6.42965,-11.4065 -10.29421,-24.31178 -10.70834,-37.39912 0,0 0,0 0,0 -0.451,-14.25267 3.80517,-28.3514 10.18094,-41.10644 0,0 0,0 0,0 0,-4e-5 0,-4e-5 0,-4e-5 2.22943,-4.46009 4.73205,-8.78443 7.50328,-12.929671 0,0 0,0 0,0 0,-4e-6 0,-8e-6 5e-5,-1.4e-5 0.80965,-1.211115 1.64227,-2.407101 2.50759,-3.57909 0,-4e-6 4e-5,-9e-6 4e-5,-1.7e-5 0,0 0,0 0,0 0,-5e-6 0,-9e-6 0,-1.3e-5 0.23422,-0.317399 0.47113,-0.633064 0.71189,-0.945632 0.0634,-0.08246 0.12724,-0.164693 0.19149,-0.246524 0.0238,-0.03005 0.0472,-0.06021 0.071,-0.08984 19.54533,-0.939687 38.3373,7.177688 54.4607,18.265023 0,0 0,0 0,0 7.38566,5.07874 12.91683,12.45499 17.4443,20.19086 0,0 0,0 0,0 0,0 0,0 0,0 1.67355,2.85947 3.20674,5.80121 4.59125,8.81131 0,0 0,0 0,0 0,0 0,0 0,0 0.40942,0.89039 0.80611,1.7868 1.18346,2.69125 0,0 0,0 0,0 0.10312,0.24677 0.20462,0.49442 0.30367,0.7429 0.0359,0.09 0.0735,0.18417 0.10813,0.27467 l -40.06362,24.73331 c 0,0 0,0 0,0 -9.85192,7.41864 -19.2524,15.43881 -28.11188,24.01819 0,4e-5 0,4e-5 -4e-5,4e-5 0,0 0,0 0,0 -2.59925,2.51709 -5.15229,5.0824 -7.63429,7.71524 0,0 0,0 0,0 -0.67214,0.71299 -1.33912,1.43098 -1.99702,2.15714 0,0 0,0 0,0 0,0 0,0 0,0 -0.17302,0.19115 -0.3452,0.38268 -0.51666,0.5751 0,0 0,0 0,0 -0.0614,0.0692 -0.12431,0.13968 -0.18522,0.20968 l -4.4e-4,4.7e-4" />
  <path
     inkscape:connector-curvature="0"
     style="color:#000000;fill:#ffffff;fill-opacity:1;fill-rule:nonzero;stroke:#000000;stroke-width:1;marker:none;visibility:visible;display:inline;overflow:visible;enable-background:accumulate"
     id="path4177"
     d="m 178.44345,188.08043 c -2.51815,-3.61302 -4.95793,-7.3325 -6.48753,-11.46231 -2.23407,-6.03165 -2.84055,-12.54196 -3.04398,-18.97088 -0.21066,-6.65755 -0.40649,-13.49807 1.74156,-19.80251 1.79028,-5.25086 5.67537,-9.53307 10.0344,-12.96464 0,0 0,0 0,0 5.66672,-0.27214 11.45485,0.14578 16.76056,2.15465 3.91075,1.48074 7.40971,3.84926 10.85536,6.21869 7.12217,4.89762 12.44868,12.03221 15.82957,19.98721 0,0 0,0 0,0 l -22.28918,13.75982 -23.40012,21.07929 c -4.4e-4,4.6e-4 -6.4e-4,6.8e-4 -6.4e-4,6.8e-4 z" />
  <path
     d="m 447.23269,370.46923 c 23.55746,-21.47888 67.87911,-24.1799 72.90188,-28.64 4.88657,-4.33918 -4.68654,-42.6997 -17.18401,-73.94339 -12.49748,-31.24366 -28.11931,-60.40438 -84.3579,-104.14551 -44.06359,-34.27165 -87.75012,-32.28515 -104.3831,-32.28515 -18.71586,0 -60.3195,-1.9865 -104.38307,32.28515 -56.23861,43.74113 -75.90139,71.3166 -84.30193,103.90161 -8.40055,32.58507 -19.0412,74.72926 -15.76511,78.0606 4.23939,4.31096 47.86954,3.28781 71.427,24.76669 17.70475,16.14255 30.72292,28.64003 43.22041,65.09095 12.49746,36.45098 26.03641,60.40447 46.8655,76.02628 20.82911,15.62183 39.57532,20.82911 78.10918,15.62183 38.53384,-5.20726 65.98634,-2.38864 78.36954,2.08294 9.55009,3.44853 28.23791,19.63628 31.7644,16.92363 3.5505,-2.73118 -6.69067,-62.30296 -13.79934,-82.53538 -4.43869,-12.63328 -22.51259,-39.35152 -35.33343,-49.63468 12.55055,-22.26779 23.07704,-31.01789 36.84998,-43.57557 z"
     id="path4008"
     style="color:#000000;fill:#ffffff;fill-opacity:1;fill-rule:nonzero;stroke:none;stroke-width:1;marker:none;visibility:visible;display:inline;overflow:visible;enable-background:accumulate"
     inkscape:connector-curvature="0" />
  <path
     d="m 313.48829,127.28042 c 0,0 -39.08663,1.01329 -60.9572,15.5937 -21.87055,14.58036 -47.86042,33.2278 -62.08022,73.84454 -14.2198,40.61678 -10.3467,63.71195 -10.3467,84.54106 26.92924,11.14407 55.08562,34.32672 64.30789,51.29167 7.23045,13.30078 9.72115,24.69465 17.01132,42.3994 7.2902,17.70475 31.7565,17.65567 52.06491,17.65567 20.3084,0 44.77472,0.049 52.06492,-17.65567 7.29015,-17.70475 9.78086,-29.09862 17.01131,-42.3994 9.22226,-16.96495 37.37865,-40.1476 64.30791,-51.29167 0,-20.82911 3.87308,-43.92428 -10.34673,-84.54106 -14.2198,-40.61674 -40.20966,-59.26418 -62.08022,-73.84454 -21.87057,-14.58041 -60.95719,-15.5937 -60.95719,-15.5937 z"
     id="path3900"
     style="color:#000000;fill:#000000;fill-opacity:1;fill-rule:nonzero;stroke:none;stroke-width:1;marker:none;visibility:visible;display:inline;overflow:visible;enable-background:accumulate"
     inkscape:connector-curvature="0" />
  <path
     d="m 190.02743,295.9759 c 0,0 47.39763,23.462 61.97798,49.49841 7.29017,13.01817 12.76741,26.88559 15.62188,35.40947 7.28732,21.76099 24.75081,21.779 44.00147,21.87057 -8.29818,-15.67627 -5.90294,-26.58966 1.82254,-34.36804 l -74.98478,-68.21532 z"
     id="path3855"
     style="color:#000000;fill:#ffffff;fill-opacity:1;fill-rule:nonzero;stroke:none;stroke-width:1;marker:none;visibility:visible;display:inline;overflow:visible;enable-background:accumulate"
     inkscape:connector-curvature="0" />
  <path
     d="m 436.87517,295.9759 c 0,0 -47.39763,23.462 -61.97799,49.49841 -7.29017,13.01817 -12.76739,26.88559 -15.62187,35.40947 -7.28735,21.76099 -24.75077,21.779 -44.00147,21.87057 8.29817,-15.67627 5.90294,-26.58966 -1.82254,-34.36804 l 74.98477,-68.21532 z"
     id="path3861"
     style="color:#000000;fill:#ffffff;fill-opacity:1;fill-rule:nonzero;stroke:none;stroke-width:1;marker:none;visibility:visible;display:inline;overflow:visible;enable-background:accumulate"
     inkscape:connector-curvature="0" />
  <path
     d="m 306.01362,137.71919 c -36.38878,0.64452 -60.66282,13.71358 -89.95374,46.90996 -34.59687,39.20981 -26.03245,111.34675 -26.03245,111.34675 37.68234,1.33286 86.54348,59.28118 101.03686,86.44994 0,0 14.82397,4.12396 22.424,4.12396 7.60003,0 22.42399,-4.12396 22.42399,-4.12396 31.86547,-42.9296 62.35122,-77.77672 101.03688,-86.44994 0,0 8.56442,-72.13694 -26.03246,-111.34675 -31.24366,-35.40947 -56.80871,-47.829 -97.42841,-46.90996 -2.5387,0.0574 -5.04874,-0.0428 -7.47467,0 z"
     id="path3023"
     style="color:#000000;fill:#ffffff;fill-opacity:1;fill-rule:nonzero;stroke:#000000;stroke-width:1;marker:none;visibility:visible;display:inline;overflow:visible;enable-background:accumulate"
     inkscape:connector-curvature="0" />
  <path
     d="m 313.52455,373.24968 c -7.60974,-0.009 -15.51856,2.26301 -21.47793,5.77452 -2.38147,1.40326 -1.76126,2.87898 0,3.98242 12.74655,7.98699 9.92169,20.31048 21.47793,20.31048 11.55621,0 8.73135,-12.32349 21.47792,-20.31048 1.76125,-1.10344 2.24805,-2.57916 -0.13314,-3.98242 -5.95933,-3.51151 -13.77664,-5.7689 -21.34452,-5.77452 z"
     id="path3015"
     style="color:#000000;fill:#000000;fill-opacity:1;fill-rule:nonzero;stroke:none;stroke-width:1;marker:none;visibility:visible;display:inline;overflow:visible;enable-background:accumulate"
     inkscape:connector-curvature="0" />
  <path
     d="m 272.58286,273.74402 a 18.616043,13.53894 60 1 1 -23.45013,13.53894 18.616043,13.53894 60 1 1 23.45013,-13.53894 z"
     id="path3028"
     style="color:#000000;fill:#000000;fill-opacity:1;fill-rule:nonzero;stroke:none;stroke-width:1;marker:none;visibility:visible;display:inline;overflow:visible;enable-background:accumulate"
     inkscape:connector-curvature="0" />
  <path
     d="m 262.15962,285.06986 a 4.9469138,4.9469138 0 1 1 -9.89382,0 4.9469138,4.9469138 0 1 1 9.89382,0 z"
     id="path3030"
     style="color:#000000;fill:#ffffff;fill-opacity:1;fill-rule:nonzero;stroke:none;stroke-width:1;marker:none;visibility:visible;display:inline;overflow:visible;enable-background:accumulate"
     inkscape:connector-curvature="0" />
  <path
     d="m 259.29562,273.35345 a 4.9469138,3.1243666 0 1 1 -9.89382,0 4.9469138,3.1243666 0 1 1 9.89382,0 z"
     id="path3032"
     style="color:#000000;fill:#ffffff;fill-opacity:1;fill-rule:nonzero;stroke:none;stroke-width:1;marker:none;visibility:visible;display:inline;overflow:visible;enable-background:accumulate"
     inkscape:connector-curvature="0" />
  <path
     d="m 353.79904,273.74402 a 13.53894,18.616043 30 1 0 23.45013,13.53894 13.53894,18.616043 30 1 0 -23.45013,-13.53894 z"
     id="path3034"
     style="color:#000000;fill:#000000;fill-opacity:1;fill-rule:nonzero;stroke:none;stroke-width:1;marker:none;visibility:visible;display:inline;overflow:visible;enable-background:accumulate"
     inkscape:connector-curvature="0" />
  <path
     d="m 365.26375,285.06986 a 4.9469138,4.9469138 0 1 1 -9.89382,0 4.9469138,4.9469138 0 1 1 9.89382,0 z"
     id="path3036"
     style="color:#000000;fill:#ffffff;fill-opacity:1;fill-rule:nonzero;stroke:none;stroke-width:1;marker:none;visibility:visible;display:inline;overflow:visible;enable-background:accumulate"
     inkscape:connector-curvature="0" />
  <path
     d="m 366.56555,273.35345 a 4.9469138,3.1243666 0 1 1 -9.89382,0 4.9469138,3.1243666 0 1 1 9.89382,0 z"
     id="path3038"
     style="color:#000000;fill:#ffffff;fill-opacity:1;fill-rule:nonzero;stroke:none;stroke-width:1;marker:none;visibility:visible;display:inline;overflow:visible;enable-background:accumulate"
     inkscape:connector-curvature="0" />
  <path
     d="m 218.69948,414.75895 c 31.61963,65.1232 57.71219,103.59996 111.91694,100.53558 49.07792,-2.77454 80.46987,-8.32768 127.72444,1.26459 l 1.26461,29.08576 -24.02737,-12.01368 -24.02738,-8.21989 -38.57026,-1.26461 -46.15782,3.7938 -24.65968,-0.63229 -30.98266,-15.17518 -29.71806,-34.14415 -21.49817,-53.11313 z"
     id="path3114"
     style="color:#000000;fill:#ab2202;fill-opacity:1;fill-rule:nonzero;stroke:none;stroke-width:1;marker:none;visibility:visible;display:inline;overflow:visible;enable-background:accumulate"
     inkscape:connector-curvature="0" />
  <path
     d="m 410.52964,410.08109 c 0,0 7.42382,-20.31958 19.67254,-33.97984 43.18174,-48.15808 74.6629,-37.83036 72.70575,-57.63137 -0.99964,-10.11365 -1.94183,-62.54178 -56.45435,-129.5228 39.10808,31.66159 60.46425,75.2 70.48659,120.98291 l 5.36522,30.40302 -33.08562,6.25944 -35.76824,18.77832 z"
     id="path3921"
     style="color:#000000;fill:#ab2202;fill-opacity:1;fill-rule:nonzero;stroke:none;stroke-width:1;marker:none;visibility:visible;display:inline;overflow:visible;enable-background:accumulate"
     inkscape:connector-curvature="0" />
  <path
     d="m 394.16412,403.27507 c 0,0 0.79725,0.30448 2.36632,1.02981 1.56907,0.72535 3.91073,1.87686 6.90948,3.71404 2.99874,1.83718 6.65391,4.37224 10.75766,7.87765 4.10377,3.5054 8.65293,8.00125 13.37504,13.53183 3.53243,4.11359 7.26327,8.83301 10.8506,14.33265 3.58735,5.49961 7.03882,11.7792 9.71962,19.06581 2.40018,6.56704 4.21084,13.74799 5.95596,21.28707 1.77754,7.65569 3.43865,15.81903 4.94956,24.48903 0.14075,0.80795 0.27984,1.61616 0.41715,2.42461 1.33102,7.82541 2.55358,15.72328 3.28847,23.72048 0.2415,2.58245 0.45167,5.26339 0.393,8.03533 -0.009,0.83087 -0.0641,1.78782 -0.26403,2.84878 2e-5,10e-6 2e-5,5e-5 2e-5,7e-5 0.16129,0.42389 -0.28368,1.47737 -1.58891,2.89433 -7e-5,7e-5 -1.3e-4,1.4e-4 -2e-4,2.1e-4 -1.95121,1.06701 -3.52448,1.16842 -4.38787,0.73188 -3e-5,0 -7e-5,-2e-5 -9e-5,-2e-5 -1.49711,-0.35132 -2.74988,-0.9012 -3.79697,-1.4429 -3.18719,-1.5895 -6.0618,-3.4877 -8.82288,-5.30503 -2e-5,-2e-5 -4e-5,-2e-5 -6e-5,-4e-5 -3.23666,-2.12065 -6.39473,-4.26321 -9.58931,-6.2469 -2.72569,-1.67172 -5.29918,-3.27736 -7.94462,-4.2059 -2e-5,0 -4e-5,-2e-5 -7e-5,-2e-5 -8.85711,-3.2291 -18.65215,-3.99653 -28.51623,-4.47914 -16.12741,-0.74063 -32.35413,0.41556 -48.45315,2.59754 -15.28233,2.11121 -31.18631,3.27702 -46.73109,-0.009 -2e-5,0 -3e-5,-10e-6 -5e-5,-10e-6 -12.37338,-2.68679 -23.68711,-8.68101 -33.60944,-16.13976 -11.16989,-8.3893 -20.22715,-19.23315 -27.36125,-31.05098 -8.82935,-14.61921 -15.15702,-30.47769 -20.61765,-46.40646 -4.85527,-14.06493 -10.56493,-27.82969 -18.99189,-39.68822 -6.362,-9.02423 -14.5817,-16.75996 -23.3008,-23.97127 -12.89012,-10.66597 -28.934,-17.33984 -45.55383,-20.30731 -5.49701,-0.98066 -11.16,-1.53906 -16.90675,-2.21429 -1.82295,-0.20602 -3.79018,-0.43843 -5.84703,-0.93311 -1.07478,-0.0297 -2.81975,-0.69647 -4.622,-2.55688 -1.32692,-2.29153 -1.47224,-4.08998 -1.26143,-4.93148 0,-2e-5 0,-6e-5 0,-7e-5 -0.0744,-2.27148 0.0756,-4.45034 0.26958,-6.52571 0.5985,-6.55611 1.71015,-12.99417 2.96679,-19.33143 3.31669,-16.79554 7.83322,-33.44366 14.21456,-49.43912 0,-2e-5 0,-2e-5 2e-5,-3e-5 6.75357,-16.94095 15.13652,-33.40374 26.16712,-48.15625 16.6387,-22.17673 37.53003,-40.60545 59.16355,-57.42956 18.46032,-14.38638 40.06926,-24.87601 63.06928,-29.6785 2e-5,0 3e-5,0 5e-5,0 8.31706,-1.73018 16.75787,-2.73683 25.20441,-3.14961 2e-5,0 2e-5,0 4e-5,0 6.13225,-0.29802 12.19525,-0.23844 18.17476,-0.24129 5.68954,-0.005 11.46001,-0.0622 17.29948,0.21764 8.47985,0.40904 16.95014,1.4133 25.30083,3.11494 2e-5,2e-5 4e-5,2e-5 7e-5,2e-5 23.24622,4.74847 45.23095,15.0826 63.94097,29.61751 21.66157,16.79805 42.58889,35.2094 59.28022,57.39173 11.06733,14.76272 19.48586,31.2378 26.26882,48.18892 0,2e-5 0,4e-5 10e-6,5e-5 6.19277,15.44555 11.42228,31.32128 15.30335,47.55674 1.4305,5.94832 2.74269,12.07587 3.30486,18.42132 0.19253,2.02309 0.29575,4.23593 0.035,6.59555 0.12128,1.24996 -0.46849,3.26952 -2.3789,5.44583 -3e-5,2e-5 -7e-5,5e-5 -1.1e-4,7e-5 -1.90102,1.44107 -3.62311,1.98048 -4.78524,2.07665 -2.01564,0.40867 -3.92772,0.60333 -5.69739,0.78509 -2e-5,0 -4e-5,0 -6e-5,0 -5.46709,0.58306 -10.83594,1.17879 -16.0132,2.2526 -17.11151,3.50097 -33.10208,12.05131 -46.40145,23.59359 -6.43163,5.58269 -12.18081,11.99318 -17.37225,18.86334 -6.12532,8.107 -11.70392,16.74772 -17.50203,25.36767 l -6.22525,-4.19151 c 5.75483,-8.53852 11.4249,-17.28332 17.77429,-25.67677 5.45076,-7.20639 11.56194,-13.98642 18.45675,-19.97144 14.16052,-12.29356 31.28361,-21.37315 49.7906,-25.1877 5.62229,-1.14425 11.22783,-1.76907 16.72511,-2.34027 1.80585,-0.19466 3.48058,-0.34998 4.98617,-0.66724 1.03413,-0.35662 1.62865,-0.32891 1.40442,-0.37679 0,0 0,0 0,0 -0.20487,0.66183 -0.41534,0.1776 -0.0246,-0.83736 0.20088,-1.51877 0.0922,-3.23429 -0.0513,-5.10245 -0.4817,-5.73757 -1.72867,-11.51304 -3.10908,-17.36249 -3.76233,-15.84508 -8.86352,-31.39075 -14.91867,-46.56499 -6.61584,-16.54582 -14.70419,-32.48436 -25.28326,-46.58349 -16.03116,-21.44765 -36.49581,-39.44213 -57.88351,-56.12686 -17.86226,-13.91019 -38.86982,-23.83167 -61.01507,-28.37139 -7.96986,-1.63792 -16.08946,-2.60945 -24.24834,-3.01624 -5.56974,-0.27962 -11.22805,-0.22752 -16.96143,-0.23257 -6.02916,-0.004 -11.98117,-0.0733 -17.84357,0.20892 -8.12891,0.38896 -16.21788,1.33946 -24.14943,2.98157 0,2e-5 -10e-6,2e-5 -3e-5,2e-5 -21.89515,4.51524 -42.59162,14.54645 -60.32459,28.3104 -21.41576,16.65865 -41.9164,34.63578 -58.00021,56.08904 -10.61581,14.10934 -18.73969,30.06015 -25.38492,46.61615 0,2e-5 0,4e-5 -2e-5,6e-5 -6.22327,15.51608 -10.6487,31.77511 -13.93928,48.26918 0,10e-6 0,3e-5 -10e-6,5e-5 -1.23887,6.23591 -2.3268,12.44903 -2.8957,18.65807 -0.17808,1.99377 -0.32307,3.90178 -0.25499,5.71393 0,2e-5 0,4e-5 0,6e-5 0.28499,1.28601 -0.007,1.86159 -0.0471,1.26628 0,0 -10e-6,0 -10e-6,-1e-5 -0.51385,-0.16147 0.0345,-0.27954 1.03018,0.20016 1.52043,0.38562 3.2263,0.57322 5.06203,0.79843 5.67038,0.67045 11.45806,1.25516 17.27864,2.2929 17.56556,3.12923 34.57917,10.28026 48.46188,21.72824 8.94834,7.38174 17.53576,15.53722 24.40086,25.22501 8.90497,12.66047 14.86424,26.95911 19.74725,41.29742 5.3969,15.73905 11.5168,31.20706 19.99913,45.24169 6.81847,11.27608 15.33764,21.55381 25.75298,29.35342 9.42987,7.05539 19.94501,12.70478 31.22119,15.1039 14.38419,3.14974 29.60144,1.97887 44.65658,-0.009 16.35561,-2.20377 32.94225,-3.35333 49.52938,-2.57866 10.01099,0.43799 20.38365,1.3345 30.24024,4.8629 0,0 2e-5,2e-5 2e-5,2e-5 3.38734,1.24989 6.32772,3.03839 9.04782,4.75534 3.3237,2.0724 6.51852,4.24462 9.70027,6.33631 1e-5,10e-6 1e-5,10e-6 3e-5,10e-6 2.78456,1.82224 5.45368,3.60773 8.20791,4.96778 0.95664,0.45304 1.75932,0.84629 2.44752,0.97319 0.47638,-0.1434 0.44759,0.1149 -0.41656,0.34572 -4e-5,5e-5 -7e-5,8e-5 -9e-5,1.4e-4 -0.62663,0.89487 -0.90183,1.00083 -0.57256,0.58506 0,0 0,-2e-5 2e-5,-2e-5 0.10853,-0.48059 0.12729,-1.10252 0.15562,-1.84329 0.0636,-2.37021 -0.13562,-4.82956 -0.36025,-7.36956 -0.69865,-7.75745 -1.8915,-15.50988 -3.19923,-23.2826 -0.13491,-0.80055 -0.27146,-1.60079 -0.40977,-2.40069 -1.48414,-8.58395 -3.06022,-16.66533 -4.70848,-24.25169 -1.64226,-7.53218 -3.2348,-14.51536 -5.35301,-20.80813 -2.3056,-6.90533 -5.38986,-12.99214 -8.62739,-18.42411 -3.23753,-5.43199 -6.63573,-10.2076 -9.85713,-14.43976 -4.33013,-5.65542 -8.45081,-10.33793 -12.18482,-14.06882 -3.73403,-3.73088 -7.07637,-6.52929 -9.83905,-8.62019 -2.76268,-2.09089 -4.94186,-3.48514 -6.40592,-4.38747 -1.46405,-0.90232 -2.21082,-1.31676 -2.21082,-1.31676 z"
     id="path3958"
     style="color:#000000;fill:#000000;fill-opacity:1;fill-rule:nonzero;stroke:none;stroke-width:1;marker:none;visibility:visible;display:inline;overflow:visible;enable-background:accumulate"
     inkscape:connector-curvature="0" />
  <path
     d="m 229.37106,257.53138 c 0.34233,-0.83802 0.74277,-1.67113 1.2072,-2.49299 2.10158,-3.39361 4.82946,-5.8906 7.52467,-7.77668 4.84747,-3.33882 10.49591,-4.37709 15.63941,-3.84309 0,0 0,0 0,0 2.21464,0.18942 4.38645,0.57681 6.49605,1.13313 1.94058,0.51175 3.47505,1.62797 4.32017,2.88904 0.84512,1.26106 1.01393,2.65224 0.47122,3.84464 -0.54269,1.19241 -1.66198,1.97411 -2.9617,2.37659 -1.29969,0.40245 -2.77794,0.43044 -4.25692,0.0345 -1.60781,-0.43038 -3.23019,-0.7237 -4.84771,-0.85089 -3.553,-0.18453 -7.08469,0.25951 -9.28913,2.06035 0,0 0,0 0,0 -2.13945,1.63755 -4.01043,3.19139 -4.95401,4.94722 -0.24085,0.37078 -0.44657,0.77945 -0.623,1.21964 -0.45043,1.12375 -1.18201,2.19906 -2.16921,3.05983 -0.98718,0.86077 -2.20947,1.4787 -3.51667,1.39156 -1.3072,-0.0871 -2.47151,-0.89627 -3.13553,-2.3289 -0.66404,-1.43264 -0.77871,-3.52472 0.0951,-5.66401 z"
     id="path4043"
     style="color:#000000;fill:#000000;fill-opacity:1;fill-rule:nonzero;stroke:none;stroke-width:1;marker:none;visibility:visible;display:inline;overflow:visible;enable-background:accumulate"
     inkscape:connector-curvature="0" />
  <path
     d="m 306.01362,137.71919 c -34.81203,0.6166 -58.57985,12.68292 -86.2164,42.786 43.66999,-23.74192 54.55025,33.10986 93.69107,35.69798 39.14082,-2.58812 50.02108,-59.4399 93.69106,-35.69798 -27.63655,-30.10308 -51.40437,-42.1694 -86.2164,-42.786 -2.42591,-0.0428 -4.93596,0.0574 -7.47466,0 -2.5387,0.0574 -5.04874,-0.0428 -7.47467,0 z"
     id="path4163"
     style="color:#000000;fill:#ffffff;fill-opacity:1;fill-rule:nonzero;stroke:#000000;stroke-width:1;marker:none;visibility:visible;display:inline;overflow:visible;enable-background:accumulate"
     inkscape:connector-curvature="0" />
  <path
     d="m 224.23999,175.80519 c -2.69397,2.78513 -5.4191,5.65846 -8.18827,8.79686 -34.59687,39.20982 -26.00331,111.3716 -26.00331,111.3716 5.42216,0.19179 11.06977,1.59699 16.81916,3.87283 -2.92347,-5.34387 -6.03416,-14.01781 -7.74566,-27.99504 -3.79379,-30.98266 5.01097,-65.12681 18.92155,-84.09579 2.86788,-3.91074 4.84094,-7.96501 6.19653,-11.95046 z"
     id="path3923"
     style="opacity:0.6;color:#000000;fill:#ab2202;fill-opacity:1;fill-rule:nonzero;stroke:none;stroke-width:1;marker:none;visibility:visible;display:inline;overflow:visible;enable-background:accumulate"
     inkscape:connector-curvature="0" />
  <path
     d="m 402.7366,175.8052 c 2.69397,2.78512 5.4191,5.65846 8.18827,8.79686 34.59687,39.20981 26.00331,111.37159 26.00331,111.37159 -5.42216,0.1918 -11.06977,1.59699 -16.81916,3.87284 2.92347,-5.34388 6.03417,-14.01782 7.74567,-27.99505 3.79378,-30.98266 -5.01098,-65.12681 -18.92156,-84.09579 -2.86788,-3.91074 -4.84094,-7.965 -6.19653,-11.95045 z"
     id="path3928"
     style="opacity:0.6;color:#000000;fill:#ab2202;fill-opacity:1;fill-rule:nonzero;stroke:none;stroke-width:1;marker:none;visibility:visible;display:inline;overflow:visible;enable-background:accumulate"
     inkscape:connector-curvature="0" />
  <path
     d="m 388.87928,261.07289 c -0.17651,-0.44018 -0.38215,-0.84885 -0.623,-1.21964 -0.94357,-1.75583 -2.81455,-3.30967 -4.954,-4.94722 -2.20445,-1.80083 -5.73613,-2.24488 -9.28914,-2.06034 0,0 0,0 0,0 -1.61752,0.12711 -3.2399,0.42051 -4.8477,0.85089 -1.47899,0.39588 -2.95724,0.36789 -4.25693,-0.0345 -1.29972,-0.40245 -2.41899,-1.18417 -2.9617,-2.37658 -0.54269,-1.19241 -0.37388,-2.58356 0.47122,-3.84465 0.84512,-1.26106 2.3796,-2.37729 4.32017,-2.88903 2.1096,-0.55633 4.28142,-0.94372 6.49606,-1.13314 0,0 0,0 0,0 5.14349,-0.534 10.79193,0.50428 15.63941,3.84309 0,0 0,0 0,0 2.6952,1.88609 5.42308,4.38308 7.52466,7.77669 0.46444,0.82185 0.86487,1.65497 1.20721,2.49298 0.87387,2.13929 0.75919,4.23137 0.0952,5.66401 -0.66403,1.43263 -1.82834,2.24176 -3.13554,2.3289 -1.3072,0.0871 -2.52949,-0.53079 -3.51667,-1.39156 -0.9872,-0.86077 -1.71878,-1.93608 -2.16921,-3.05983 z"
     id="path3995"
     style="color:#000000;fill:#000000;fill-opacity:1;fill-rule:nonzero;stroke:none;stroke-width:1;marker:none;visibility:visible;display:inline;overflow:visible;enable-background:accumulate"
     inkscape:connector-curvature="0" />
</svg>
